<svg xmlns="http://www.w3.org/2000/svg" version="1.1" xmlns:xlink="http://www.w3.org/1999/xlink" xmlns:svgjs="http://svgjs.dev/svgjs" width="2000" height="1500" viewBox="0 0 2000 1500"><rect width="2000" height="1500" fill="#000000"></rect><g transform="matrix(0.75,0,0,0.75,249.090909090909,394.2288379382469)"><svg viewBox="0 0 396 136" data-background-color="#000000" preserveAspectRatio="xMidYMid meet" height="686" width="2000" xmlns="http://www.w3.org/2000/svg" xmlns:xlink="http://www.w3.org/1999/xlink"><g id="tight-bounds" transform="matrix(1,0,0,1,0.2400000000000091,26.04252291622629)"><svg viewBox="0 0 395.52 96.32944175635404" height="96.32944175635404" width="395.52"><g><svg viewBox="0 0 566.8546376191091 138.05822916375695" height="96.32944175635404" width="395.52"><g><rect width="5.336518904258828" height="128.470852138496" x="152.02817393930363" y="4.793688512630467" fill="#fb6968" opacity="1" stroke-width="0" stroke="transparent" fill-opacity="1" class="rect-qz-0" data-fill-palette-color="primary" rx="1%" id="qz-0" data-palette-color="#fb6968"></rect></g><g transform="matrix(1,0,0,1,171.33463761910915,5.113267746805818)"><svg viewBox="0 0 395.52 127.83169367014531" height="127.83169367014531" width="395.52"><g id="textblocktransform"><svg viewBox="0 0 395.52 127.83169367014531" height="127.83169367014531" width="395.52" id="textblock"><g><svg viewBox="0 0 395.52 127.83169367014531" height="127.83169367014531" width="395.52"><g transform="matrix(1,0,0,1,0,0)"><svg width="395.52" viewBox="0.809999999999997 -36.839999999999996 250.31 77.9" height="127.83169367014531" data-palette-color="#fb6968"><svg></svg><svg></svg><g class="wordmark-text-0" data-fill-palette-color="primary" id="text-0"><path d="M29.15-33.54v7.98h-2.95l-0.71-4.69c-0.113-0.567-0.39-0.85-0.83-0.85v0h-7.16v27.66c0 0.24 0.087 0.477 0.26 0.71 0.173 0.227 0.437 0.357 0.79 0.39v0l3.2 0.19v2.15h-13.55v-2.15l3.2-0.19c0.36-0.033 0.623-0.163 0.79-0.39 0.173-0.233 0.26-0.47 0.26-0.71v0-27.66h-7.2c-0.487 0-0.773 0.283-0.86 0.85v0l-0.68 4.69h-2.9v-7.98zM57.5-1.95v1.95h-11.14v-1.95l2.05-0.15c0.293-0.033 0.55-0.147 0.77-0.34 0.22-0.193 0.33-0.447 0.33-0.76v0-12.89c0-1.433-0.34-2.617-1.02-3.55-0.687-0.933-1.997-1.4-3.93-1.4v0c-0.88 0-1.83 0.137-2.85 0.41-1.013 0.28-1.88 0.623-2.6 1.03v0 16.4c0 0.687 0.333 1.053 1 1.1v0l2.15 0.15v1.95h-11.25v-1.95l2.39-0.15c0.7-0.047 1.05-0.413 1.05-1.1v0-30.05h-3.74v-1.66l6.4-1.93h2v15.23c0.6-0.373 1.383-0.8 2.35-1.28 0.96-0.48 1.967-0.903 3.02-1.27 1.06-0.367 2.02-0.55 2.88-0.55v0c1.92 0 3.533 0.62 4.84 1.86 1.3 1.233 1.95 3.137 1.95 5.71v0 13.94c0 0.313 0.11 0.567 0.33 0.76 0.22 0.193 0.477 0.307 0.77 0.34v0zM81.47-5.54v3.05c-1.4 0.86-2.91 1.593-4.53 2.2-1.62 0.6-3.277 0.9-4.97 0.9v0c-2.013 0-3.903-0.45-5.67-1.35-1.767-0.907-3.197-2.28-4.29-4.12-1.087-1.84-1.63-4.15-1.63-6.93v0c0-2.607 0.503-4.877 1.51-6.81 1.007-1.94 2.397-3.443 4.17-4.51 1.78-1.067 3.8-1.6 6.06-1.6v0c3.107 0 5.443 0.967 7.01 2.9 1.56 1.927 2.34 4.38 2.34 7.36v0c0 0.16 0 0.373 0 0.64 0 0.273-0.017 0.523-0.05 0.75v0h-16.21c0 1.267 0.133 2.53 0.4 3.79 0.273 1.267 0.727 2.413 1.36 3.44 0.633 1.02 1.487 1.84 2.56 2.46 1.073 0.62 2.417 0.93 4.03 0.93v0c1.433 0 2.83-0.33 4.19-0.99 1.36-0.66 2.6-1.363 3.72-2.11zM65.48-15.31h10.98v-1.1c0-1.64-0.393-3.023-1.18-4.15-0.787-1.12-2.01-1.68-3.67-1.68v0c-1.647 0-3.047 0.617-4.2 1.85-1.16 1.24-1.803 2.933-1.93 5.08zM133.23-8.35v8.35h-25.93v-2.15l2.59-0.19c0.353-0.033 0.627-0.163 0.82-0.39 0.187-0.233 0.28-0.47 0.28-0.71v0-26.66c0-0.247-0.093-0.487-0.28-0.72-0.193-0.24-0.467-0.367-0.82-0.38v0l-2.59-0.2v-2.14h24.29v7.44h-3l-0.76-4.1c-0.013-0.247-0.11-0.467-0.29-0.66-0.18-0.193-0.383-0.29-0.61-0.29v0h-10.84v12.45h7.49c0.233 0 0.443-0.097 0.63-0.29 0.187-0.2 0.28-0.39 0.28-0.57v0l0.51-3.44h2.54v11.16h-2.54l-0.51-3.47c0-0.18-0.1-0.373-0.3-0.58-0.193-0.213-0.397-0.32-0.61-0.32v0h-7.49v13.77h12.65c0.207 0 0.403-0.12 0.59-0.36 0.187-0.233 0.29-0.43 0.31-0.59v0l0.9-4.96zM150.15-13.31v3.67h-12.31v-3.67zM178.86-9.3v9.3h-24.32v-2.15l2.91-0.19c0.353-0.033 0.617-0.163 0.79-0.39 0.173-0.233 0.26-0.47 0.26-0.71v0-26.66c0-0.247-0.087-0.487-0.26-0.72-0.173-0.24-0.437-0.367-0.79-0.38v0l-2.91-0.2v-2.14h12.77v2.14l-2.66 0.2c-0.36 0.013-0.633 0.14-0.82 0.38-0.187 0.233-0.28 0.473-0.28 0.72v0 27.66h10.5c0.227 0 0.463-0.09 0.71-0.27 0.24-0.18 0.37-0.377 0.39-0.59v0l0.8-6zM204.35-1.95v1.95h-7.4l-0.66-2.95c0 0-0.25 0.177-0.75 0.53-0.493 0.36-1.147 0.777-1.96 1.25-0.813 0.473-1.713 0.887-2.7 1.24-0.987 0.36-1.967 0.54-2.94 0.54v0c-1.807 0-3.34-0.603-4.6-1.81-1.26-1.2-1.89-2.85-1.89-4.95v0c0-0.927 0.167-1.79 0.5-2.59 0.333-0.8 1-1.56 2-2.28 1-0.727 2.49-1.437 4.47-2.13 1.973-0.687 4.597-1.39 7.87-2.11v0-2.15c0-3.287-1.553-4.93-4.66-4.93v0c-0.867 0-1.613 0.083-2.24 0.25-0.627 0.16-1.06 0.29-1.3 0.39v0 4.34h-3.64c-0.46 0-0.883-0.083-1.27-0.25-0.393-0.173-0.59-0.57-0.59-1.19v0c0-1.367 0.523-2.487 1.57-3.36 1.04-0.867 2.36-1.507 3.96-1.92 1.607-0.42 3.23-0.63 4.87-0.63v0c2.067 0 3.67 0.323 4.81 0.97 1.14 0.64 1.94 1.527 2.4 2.66 0.453 1.133 0.68 2.423 0.68 3.87v0 14.01c0 0.313 0.1 0.567 0.3 0.76 0.207 0.193 0.457 0.307 0.75 0.34v0zM196.29-4.71v0-8.64c-2.247 0.553-4.033 1.11-5.36 1.67-1.327 0.56-2.317 1.12-2.97 1.68-0.647 0.56-1.073 1.13-1.28 1.71-0.2 0.58-0.3 1.18-0.3 1.8v0c0 1.02 0.33 1.967 0.99 2.84 0.653 0.873 1.577 1.31 2.77 1.31v0c0.667 0 1.357-0.12 2.07-0.36 0.72-0.233 1.387-0.51 2-0.83 0.62-0.313 1.123-0.59 1.51-0.83 0.38-0.233 0.57-0.35 0.57-0.35zM231.23-13.21v0c0 2.507-0.497 4.757-1.49 6.75-0.993 1.993-2.55 3.57-4.67 4.73-2.113 1.153-4.847 1.73-8.2 1.73v0h-7.2v-33.25h-3.79v-1.66l6.45-1.93h2v13.99c0.573-0.28 1.497-0.66 2.77-1.14 1.28-0.48 2.653-0.72 4.12-0.72v0c2.193 0 4.03 0.53 5.51 1.59 1.487 1.06 2.607 2.463 3.36 4.21 0.76 1.753 1.14 3.653 1.14 5.7zM226.12-12.21v0c0-3.153-0.667-5.533-2-7.14-1.333-1.6-3.213-2.4-5.64-2.4v0c-0.553 0-1.257 0.09-2.11 0.27-0.853 0.173-1.533 0.35-2.04 0.53v0 18.56c0 0 0.29 0.007 0.87 0.02 0.573 0.02 1.097 0.03 1.57 0.03v0c2.967 0 5.267-0.733 6.9-2.2 1.633-1.467 2.45-4.023 2.45-7.67zM251.12-7.25v0c0 2.46-0.847 4.383-2.54 5.77-1.693 1.393-4.027 2.09-7 2.09v0c-1.533 0-2.947-0.16-4.24-0.48-1.293-0.313-2.193-0.577-2.7-0.79v0-6.64h2.54l0.61 4.25c0.507 0.327 1.13 0.64 1.87 0.94 0.74 0.3 1.6 0.45 2.58 0.45v0c1.427 0 2.533-0.4 3.32-1.2 0.78-0.793 1.17-1.687 1.17-2.68v0c0-1.32-0.473-2.317-1.42-2.99-0.94-0.68-2.283-1.433-4.03-2.26v0l-0.65-0.32c-1.827-0.86-3.223-1.76-4.19-2.7-0.967-0.933-1.45-2.15-1.45-3.65v0c0-2.227 0.78-3.99 2.34-5.29 1.56-1.307 3.78-1.96 6.66-1.96v0c1.467 0 2.773 0.137 3.92 0.41 1.147 0.267 1.973 0.513 2.48 0.74v0 5.91h-2.61l-0.39-3.49c-0.36-0.28-0.89-0.54-1.59-0.78-0.7-0.247-1.44-0.37-2.22-0.37v0c-1.367 0-2.383 0.313-3.05 0.94-0.667 0.627-1 1.427-1 2.4v0c0 1.127 0.4 2.02 1.2 2.68 0.807 0.66 2.27 1.47 4.39 2.43v0c1.74 0.793 3.177 1.683 4.31 2.67 1.127 0.987 1.69 2.293 1.69 3.92z" fill="#fb6968" fill-rule="nonzero" stroke="none" stroke-width="1" stroke-linecap="butt" stroke-linejoin="miter" stroke-miterlimit="10" stroke-dasharray="" stroke-dashoffset="0" font-family="none" font-weight="none" font-size="none" text-anchor="none" style="mix-blend-mode: normal" data-fill-palette-color="primary" opacity="1"></path><path transform="translate(0,40.45)" d="M27.54-8.35v8.35h-25.93v-2.15l2.59-0.19c0.36-0.033 0.633-0.163 0.82-0.39 0.187-0.233 0.28-0.47 0.28-0.71v0-26.66c0-0.247-0.093-0.487-0.28-0.72-0.187-0.24-0.46-0.367-0.82-0.38v0l-2.59-0.2v-2.14h24.29v7.44h-3l-0.76-4.1c-0.013-0.247-0.11-0.467-0.29-0.66-0.18-0.193-0.383-0.29-0.61-0.29v0h-10.84v12.45h7.5c0.227 0 0.433-0.097 0.62-0.29 0.187-0.2 0.28-0.39 0.28-0.57v0l0.51-3.44h2.54v11.16h-2.54l-0.51-3.47c0-0.18-0.097-0.373-0.29-0.58-0.2-0.213-0.403-0.32-0.61-0.32v0h-7.5v13.77h12.65c0.207 0 0.407-0.12 0.6-0.36 0.187-0.233 0.287-0.43 0.3-0.59v0l0.9-4.96zM56.05-1.95v1.95h-7.86v-2.66c-1.14 0.88-2.35 1.643-3.63 2.29-1.287 0.653-2.657 0.98-4.11 0.98v0c-1.673 0-3.117-0.353-4.33-1.06-1.213-0.707-2.207-1.647-2.98-2.82-0.773-1.173-1.347-2.467-1.72-3.88-0.373-1.42-0.56-2.837-0.56-4.25v0c0-2.26 0.463-4.403 1.39-6.43 0.927-2.027 2.333-3.68 4.22-4.96 1.893-1.28 4.27-1.92 7.13-1.92v0c0.8 0 1.667 0.077 2.6 0.23 0.94 0.16 1.603 0.287 1.99 0.38v0-9.15h-3.78v-1.66l6.44-1.93h2.01v33.64c0 0.687 0.35 1.053 1.05 1.1v0zM48.19-4.54v0-17.02c-0.42-0.147-1.05-0.303-1.89-0.47-0.84-0.173-1.623-0.26-2.35-0.26v0c-2.48 0-4.46 0.917-5.94 2.75-1.48 1.827-2.22 4.253-2.22 7.28v0c0 2.72 0.637 4.977 1.91 6.77 1.267 1.787 3.047 2.68 5.34 2.68v0c1.013 0 1.963-0.19 2.85-0.57 0.887-0.387 1.653-0.773 2.3-1.16zM84.74-1.95v1.95h-7.93v-2.86c-0.573 0.44-1.3 0.93-2.18 1.47-0.873 0.533-1.817 1-2.83 1.4-1.007 0.4-2.007 0.6-3 0.6v0c-2.147 0-3.837-0.647-5.07-1.94-1.227-1.293-1.84-3.35-1.84-6.17v0-13.54h-3.49v-1.71l6.15-1.96h2v16.26c0 1.773 0.363 3.157 1.09 4.15 0.727 0.993 1.977 1.49 3.75 1.49v0c1.02 0 2.027-0.173 3.02-0.52 0.993-0.353 1.793-0.677 2.4-0.97v0-16.74h-3.52v-1.71l6.1-1.96h2.06v21.51c0 0.313 0.107 0.567 0.32 0.76 0.22 0.193 0.477 0.307 0.77 0.34v0zM107.4-4.71v0 2.85c-1.127 0.607-2.393 1.17-3.8 1.69-1.407 0.52-2.957 0.78-4.65 0.78v0c-2.327 0-4.35-0.547-6.07-1.64-1.713-1.087-3.04-2.57-3.98-4.45-0.933-1.88-1.4-4.017-1.4-6.41v0c0-2.8 0.557-5.153 1.67-7.06 1.113-1.9 2.587-3.333 4.42-4.3 1.833-0.973 3.817-1.46 5.95-1.46v0c2.193 0 4.037 0.427 5.53 1.28 1.487 0.86 2.23 2.103 2.23 3.73v0c0 0.973-0.307 1.71-0.92 2.21-0.607 0.493-1.283 0.74-2.03 0.74v0c-0.553 0-1.033-0.093-1.44-0.28-0.413-0.187-0.773-0.377-1.08-0.57v0-4.35c-0.767-0.44-1.467-0.66-2.1-0.66v0c-1.48 0-2.753 0.437-3.82 1.31-1.067 0.867-1.883 2.06-2.45 3.58-0.573 1.513-0.86 3.237-0.86 5.17v0c0 1.84 0.31 3.52 0.93 5.04 0.62 1.527 1.543 2.737 2.77 3.63 1.227 0.893 2.753 1.34 4.58 1.34v0c1.153 0 2.26-0.187 3.32-0.56 1.06-0.373 2.127-0.91 3.2-1.61zM133.69-1.95v1.95h-7.4l-0.66-2.95c0 0-0.247 0.177-0.74 0.53-0.493 0.36-1.15 0.777-1.97 1.25-0.813 0.473-1.71 0.887-2.69 1.24-0.987 0.36-1.967 0.54-2.94 0.54v0c-1.807 0-3.343-0.603-4.61-1.81-1.26-1.2-1.89-2.85-1.89-4.95v0c0-0.927 0.167-1.79 0.5-2.59 0.333-0.8 1-1.56 2-2.28 1-0.727 2.49-1.437 4.47-2.13 1.98-0.687 4.603-1.39 7.87-2.11v0-2.15c0-3.287-1.553-4.93-4.66-4.93v0c-0.86 0-1.603 0.083-2.23 0.25-0.627 0.16-1.063 0.29-1.31 0.39v0 4.34h-3.64c-0.453 0-0.877-0.083-1.27-0.25-0.387-0.173-0.58-0.57-0.58-1.19v0c0-1.367 0.52-2.487 1.56-3.36 1.04-0.867 2.363-1.507 3.97-1.92 1.6-0.42 3.223-0.63 4.87-0.63v0c2.067 0 3.67 0.323 4.81 0.97 1.14 0.64 1.937 1.527 2.39 2.66 0.453 1.133 0.68 2.423 0.68 3.87v0 14.01c0 0.313 0.103 0.567 0.31 0.76 0.2 0.193 0.447 0.307 0.74 0.34v0zM125.63-4.71v0-8.64c-2.24 0.553-4.023 1.11-5.35 1.67-1.327 0.56-2.317 1.12-2.97 1.68-0.653 0.56-1.08 1.13-1.28 1.71-0.207 0.58-0.31 1.18-0.31 1.8v0c0 1.02 0.33 1.967 0.99 2.84 0.66 0.873 1.583 1.31 2.77 1.31v0c0.667 0 1.36-0.12 2.08-0.36 0.713-0.233 1.38-0.51 2-0.83 0.62-0.313 1.12-0.59 1.5-0.83 0.38-0.233 0.57-0.35 0.57-0.35zM151.17-3.05v0 2c0 0-0.313 0.14-0.94 0.42-0.627 0.273-1.447 0.55-2.46 0.83-1.02 0.273-2.133 0.41-3.34 0.41v0c-1.867 0-3.23-0.443-4.09-1.33-0.853-0.887-1.28-2.313-1.28-4.28v0-16.61h-3.2v-1.63l3.42-1.61 2.25-5.3h2.2v6.05h7.05v2.49h-7.05v13.97c0 1.987 0.333 3.39 1 4.21 0.667 0.82 1.667 1.23 3 1.23v0c0.973 0 1.79-0.14 2.45-0.42 0.66-0.287 0.99-0.43 0.99-0.43zM162.4-32.35v0c0 0.847-0.293 1.577-0.88 2.19-0.587 0.607-1.3 0.91-2.14 0.91v0c-0.847 0-1.577-0.303-2.19-0.91-0.613-0.613-0.92-1.343-0.92-2.19v0c0-0.86 0.307-1.583 0.92-2.17 0.613-0.587 1.343-0.88 2.19-0.88v0c0.84 0 1.553 0.293 2.14 0.88 0.587 0.587 0.88 1.31 0.88 2.17zM164.97-1.95v1.95h-11.75v-1.95l2.44-0.15c0.7-0.047 1.05-0.413 1.05-1.1v0-17.84h-3.44v-1.76l6.11-1.91h1.97v21.51c0 0.313 0.103 0.567 0.31 0.76 0.2 0.193 0.447 0.307 0.74 0.34v0zM192.16-12.01v0c0 2.36-0.487 4.497-1.46 6.41-0.98 1.913-2.36 3.427-4.14 4.54-1.78 1.113-3.893 1.67-6.34 1.67v0c-2.42 0-4.517-0.553-6.29-1.66-1.78-1.107-3.15-2.613-4.11-4.52-0.96-1.9-1.44-4.047-1.44-6.44v0c0-2.38 0.487-4.53 1.46-6.45 0.967-1.92 2.35-3.44 4.15-4.56 1.793-1.127 3.92-1.69 6.38-1.69v0c2.493 0 4.617 0.57 6.37 1.71 1.76 1.14 3.103 2.67 4.03 4.59 0.927 1.92 1.39 4.053 1.39 6.4zM186.96-12.06v0c0-1.82-0.24-3.52-0.72-5.1-0.48-1.58-1.21-2.86-2.19-3.84-0.987-0.973-2.23-1.46-3.73-1.46v0c-1.547 0-2.81 0.487-3.79 1.46-0.987 0.98-1.717 2.26-2.19 3.84-0.473 1.58-0.71 3.28-0.71 5.1v0c0 1.807 0.24 3.503 0.72 5.09 0.48 1.587 1.213 2.867 2.2 3.84 0.987 0.98 2.227 1.47 3.72 1.47v0c1.533 0 2.793-0.49 3.78-1.47 0.98-0.973 1.71-2.25 2.19-3.83 0.48-1.58 0.72-3.28 0.72-5.1zM221.22-1.95v1.95h-11.04v-1.95l2.1-0.15c0.293-0.033 0.54-0.147 0.74-0.34 0.207-0.193 0.31-0.447 0.31-0.76v0-13.01c0-1.58-0.367-2.78-1.1-3.6-0.733-0.82-1.97-1.23-3.71-1.23v0c-0.947 0-1.887 0.133-2.82 0.4-0.933 0.267-1.823 0.613-2.67 1.04v0 16.4c0 0.687 0.35 1.053 1.05 1.1v0l2.1 0.15v1.95h-11.31v-1.95l2.44-0.15c0.7-0.047 1.05-0.413 1.05-1.1v0-17.36h-3.49v-1.63l6.11-1.91h2.05v2.49c1.4-0.793 2.837-1.507 4.31-2.14 1.473-0.64 2.787-0.96 3.94-0.96v0c2.18 0 3.84 0.68 4.98 2.04 1.14 1.36 1.71 3.253 1.71 5.68v0 13.79c0 0.313 0.1 0.567 0.3 0.76 0.207 0.193 0.457 0.307 0.75 0.34v0zM240.41-7.25v0c0 2.46-0.847 4.383-2.54 5.77-1.693 1.393-4.03 2.09-7.01 2.09v0c-1.533 0-2.947-0.16-4.24-0.48-1.293-0.313-2.19-0.577-2.69-0.79v0-6.64h2.53l0.62 4.25c0.5 0.327 1.12 0.64 1.86 0.94 0.74 0.3 1.6 0.45 2.58 0.45v0c1.433 0 2.54-0.4 3.32-1.2 0.78-0.793 1.17-1.687 1.17-2.68v0c0-1.32-0.473-2.317-1.42-2.99-0.94-0.68-2.28-1.433-4.02-2.26v0l-0.66-0.32c-1.827-0.86-3.223-1.76-4.19-2.7-0.967-0.933-1.45-2.15-1.45-3.65v0c0-2.227 0.78-3.99 2.34-5.29 1.567-1.307 3.79-1.96 6.67-1.96v0c1.46 0 2.763 0.137 3.91 0.41 1.153 0.267 1.98 0.513 2.48 0.74v0 5.91h-2.61l-0.39-3.49c-0.36-0.28-0.89-0.54-1.59-0.78-0.7-0.247-1.44-0.37-2.22-0.37v0c-1.367 0-2.383 0.313-3.05 0.94-0.667 0.627-1 1.427-1 2.4v0c0 1.127 0.403 2.02 1.21 2.68 0.807 0.66 2.267 1.47 4.38 2.43v0c1.74 0.793 3.177 1.683 4.31 2.67 1.133 0.987 1.7 2.293 1.7 3.92z" fill="#fb6968" fill-rule="nonzero" stroke="none" stroke-width="1" stroke-linecap="butt" stroke-linejoin="miter" stroke-miterlimit="10" stroke-dasharray="" stroke-dashoffset="0" font-family="none" font-weight="none" font-size="none" text-anchor="none" style="mix-blend-mode: normal" data-fill-palette-color="primary" opacity="1"></path></g></svg></g></svg></g></svg></g></svg></g><g><svg viewBox="0 0 138.05822916375695 138.05822916375695" height="138.05822916375695" width="138.05822916375695"><g><svg xmlns="http://www.w3.org/2000/svg" viewBox="0 0 256 256" x="0" y="0" height="138.05822916375695" width="138.05822916375695" class="icon-icon-0" data-fill-palette-color="accent" id="icon-0"><g fill="#fb6968" data-fill-palette-color="accent"><path d="M151.568 166H229v10H27V166h81.206A110.89 110.89 0 0 1 66.8 148.549 111.815 111.815 0 0 1 26.36 98.314l9.266-3.759a101.7 101.7 0 0 0 188.559-0.1l9.269 3.75a111.8 111.8 0 0 1-40.431 50.308A110.885 110.885 0 0 1 151.568 166Zm-21.682-24.545A85.114 85.114 0 0 0 214.4 65.573l-9.943-1.066a75.006 75.006 0 0 1-149.089 0.486l-9.935 1.131A84.923 84.923 0 0 0 129.886 141.455Zm0-26.667a58.353 58.353 0 0 0 56.356-73.417l-9.66 2.587a48.333 48.333 0 1 1-93.494 0.388l-9.68-2.507a58.353 58.353 0 0 0 56.478 72.949ZM98.22 56.456a31.667 31.667 0 1 1 31.666 31.667A31.7 31.7 0 0 1 98.22 56.456Zm10 0A21.667 21.667 0 1 0 129.886 34.79 21.691 21.691 0 0 0 108.22 56.456ZM37 203H219V193H37Zm27 27H192V220H64Z" fill="#fb6968" data-fill-palette-color="accent"></path></g></svg></g></svg></g></svg></g><defs></defs></svg><rect width="395.52" height="96.32944175635404" fill="none" stroke="none" visibility="hidden"></rect></g></svg></g></svg>